HIERARCHY
ROOT Hips
{
	OFFSET 0.00000 0.00000 0.00000
	CHANNELS 6 Xposition Yposition Zposition Zrotation Yrotation Xrotation 
	JOINT LHipJoint
	{
		OFFSET 0 0 0
		CHANNELS 3 Zrotation Yrotation Xrotation
		JOINT LeftHip
		{
			OFFSET 1.62329 -1.80800 0.67318
			CHANNELS 3 Zrotation Yrotation Xrotation
			JOINT LeftKnee
			{
				OFFSET 2.57139 -7.06484 0.00000
				CHANNELS 3 Zrotation Yrotation Xrotation
				JOINT LeftAnkle
				{
					OFFSET 2.52017 -6.92413 0.00000
					CHANNELS 3 Zrotation Yrotation Xrotation
					JOINT LeftToe
					{
						OFFSET 0.23295 -0.64001 2.10214
						CHANNELS 3 Zrotation Yrotation Xrotation
						End Site
						{
							OFFSET 0.00000 -0.00000 1.10139
						}
					}
				}
			}
		}
	}
	JOINT RHipJoint
	{
		OFFSET 0 0 0
		CHANNELS 3 Zrotation Yrotation Xrotation
		JOINT RightHip
		{
			OFFSET -1.48061 -1.80800 0.67318
			CHANNELS 3 Zrotation Yrotation Xrotation
			JOINT RightKnee
			{
				OFFSET -2.63258 -7.23296 0.00000
				CHANNELS 3 Zrotation Yrotation Xrotation
				JOINT RightAnkle
				{
					OFFSET -2.54779 -7.00000 0.00000
					CHANNELS 3 Zrotation Yrotation Xrotation
					JOINT RightToe
					{
						OFFSET -0.23067 -0.63376 2.12161
						CHANNELS 3 Zrotation Yrotation Xrotation
						End Site
						{
							OFFSET -0.00000 -0.00000 1.11000
						}
					}
				}
			}
		}
	}
	JOINT lowerback
	{
		OFFSET 0 0 0
		CHANNELS 3 Zrotation Yrotation Xrotation
		JOINT Chest
		{
			OFFSET -0.02108 2.07573 -0.16981
			CHANNELS 3 Zrotation Yrotation Xrotation
			JOINT Chest2
			{
				OFFSET 0.05070 2.08439 -0.03141
				CHANNELS 3 Zrotation Yrotation Xrotation
				JOINT lowerneck
				{
					OFFSET 0 0 0
					CHANNELS 3 Zrotation Yrotation Xrotation
					JOINT Neck
					{
						OFFSET -0.10731 1.60408 0.31370
						CHANNELS 3 Zrotation Yrotation Xrotation
						JOINT Head
						{
							OFFSET 0.08411 1.65679 -0.30822
							CHANNELS 3 Zrotation Yrotation Xrotation
							End Site
							{
								OFFSET 0.03911 1.69149 -0.14146
							}
						}
					}
				}
				JOINT LeftCollar
				{
					OFFSET 0 0 0
					CHANNELS 3 Zrotation Yrotation Xrotation
					JOINT LeftShoulder
					{
						OFFSET 3.52315 0.73219 -0.54694
CHANNELS 3 Zrotation Xrotation Yrotation
						JOINT LeftElbow
						{
OFFSET 0 -5.324620 -0.000000
CHANNELS 3 Zrotation Xrotation Yrotation
							JOINT LeftWrist
							{
OFFSET 0 -3.484020 -0.000000
CHANNELS 3 Zrotation Xrotation Yrotation
								JOINT lhand
								{
									OFFSET 0 0 0
CHANNELS 3 Zrotation Xrotation Yrotation
									JOINT LFingers
									{
OFFSET 0 -0.572480 -0.000000
CHANNELS 3 Zrotation Xrotation Yrotation
										End Site
										{
OFFSET 0 -0.461540 -0.000000
										}
									}
								}
								JOINT LThumb
								{
OFFSET 0 0.000000 0.000000
CHANNELS 3 Zrotation Xrotation Yrotation
									End Site
									{
OFFSET 0 -0.468590 0.468590
									}
								}
							}
						}
					}
				}
				JOINT RightCollar
				{
					OFFSET 0 0 0
					CHANNELS 3 Zrotation Yrotation Xrotation
					JOINT RightShoulder
					{
						OFFSET -3.41766 0.93592 -0.10019
CHANNELS 3 Zrotation Xrotation Yrotation
						JOINT RightElbow
						{
OFFSET 0 -5.335890 -0.000000
CHANNELS 3 Zrotation Xrotation Yrotation
							JOINT RightWrist
							{
OFFSET 0 -3.641340 -0.000000
CHANNELS 3 Zrotation Xrotation Yrotation
								JOINT rhand
								{
									OFFSET 0 0 0
CHANNELS 3 Zrotation Xrotation Yrotation
									JOINT RFingers
									{
OFFSET 0 -0.734810 -0.000000
CHANNELS 3 Zrotation Xrotation Yrotation
										End Site
										{
OFFSET 0 -0.592420 -0.000000
										}
									}
								}
								JOINT RThumb
								{
OFFSET 0 0.000000 0.000000
CHANNELS 3 Zrotation Xrotation Yrotation
									End Site
									{
OFFSET 0 -0.601470 0.601470
									}
								}
							}
						}
					}
				}
			}
		}
	}
}
MOTION
Frames: 8
Frame Time: .0083333
-1.4920 16.9478 -4.2047 -2.0314 2.0596 44.8936 0.0000 0.0000 0.0000 1.7588 -11.7430 -74.2985 3.7948 11.8823 35.3168 -0.0161 3.4484 -4.0375 1.6377 -8.0668 -22.9172 0.0000 0.0000 0.0000 -2.4151 13.2408 -71.9694 -3.2386 -11.0717 32.5219 0.1337 -9.4393 -10.7678 -0.0600 -1.5805 4.3477 0.4105 0.1795 39.5477 3.2868 0.7867 8.8439 2.9861 0.2937 -9.4295 -10.4119 -3.9112 -34.0226 5.8278 -1.8148 13.1724 3.4415 -0.6657 9.6823 0.0000 -0.0000 0.0000 50.852 -50.585 -20.4979 22.3960 -33.4217 6.8027 17.8558 21.7851 -14.6671 0.0 0.0 0.0 -7.1250 0.0 0.0 -9.0146 45.1615 0.0362 0.0000 -0.0000 0.0000 -57.4878 -50.4224 10.2889 -25.2714 -36.4801 -8.4508 -26.3906 30.8302 -6.8874 0.0 0.0 0.0 7.1250 0.0 -0.0 0.2801 22.3001 0.1529
-1.4883 16.9541 -4.2057 -2.0061 2.0869 44.2258 0.0000 0.0000 0.0000 1.5339 -11.7422 -73.7119 3.8541 11.9637 35.6038 -0.0097 3.2880 -4.1627 1.6718 -8.1462 -23.1591 0.0000 0.0000 0.0000 -2.1968 13.1659 -71.3722 -3.2931 -11.1551 32.8047 0.1151 -9.2237 -10.8202 -0.0580 -1.5543 4.2755 0.6368 0.0528 38.5852 3.1348 0.6913 8.6086 2.7418 0.2567 -9.3620 -10.1375 -3.7934 -33.3519 5.9119 -1.8698 12.8389 3.4122 -0.6673 9.4664 -0.0000 -0.0000 0.0000 49.3774 -49.3008 -22.3253 22.7532 -33.8179 7.0005 17.8846 21.4674 -14.8615 0.0 0.0 0.0 -7.1250 0.0 0.0 -9.0357 45.3647 0.082 -0.0000 -0.0000 0.0000 -55.3412 -49.2079 12.0337 -25.6488 -36.8598 -8.6761 -26.4545 31.065 -6.8624 0.0 0.0 0.0 7.1250 0.0 -0.0 0.2323 22.3238 0.1266
-1.4837 16.9548 -4.2041 -2.1333 2.1161 43.6305 0.0000 0.0000 0.0000 1.4266 -11.6029 -73.2512 3.9260 12.0613 35.9493 -0.0012 3.0780 -4.3263 1.6870 -8.1813 -23.2660 0.0000 0.0000 0.0000 -1.8663 13.1969 -70.8770 -3.3435 -11.2314 33.0642 0.1120 -9.1445 -10.7516 -0.0417 -1.3176 3.6231 0.8893 -0.0416 37.3955 3.0444 0.6386 8.4354 2.5306 0.2360 -9.1404 -9.8736 -3.6641 -32.8310 5.9747 -1.8773 12.5332 3.3859 -0.6499 9.2789 -0.0000 0.0000 0.0000 48.1127 -48.0877 -23.7242 23.0842 -34.1808 7.1856 16.9106 20.443 -14.6627 0.0 0.0 0.0 -7.1250 0.0 0.0 -9.8757 45.0432 0.0106 -0.0000 0.0000 0.0000 -53.4171 -47.9909 13.5386 -26.1895 -37.3952 -9.0025 -26.2172 31.1919 -6.8835 0.0 0.0 0.0 7.1250 0.0 -0.0 0.4068 22.3159 0.2219
-1.4812 16.9594 -4.2023 -2.2606 2.1810 42.8114 0.0000 0.0000 0.0000 1.2438 -11.4274 -72.5452 3.9918 12.1495 36.2630 0.0088 2.7961 -4.4775 1.6767 -8.1574 -23.1931 0.0000 0.0000 0.0000 -1.3822 13.1790 -70.1319 -3.3979 -11.3128 33.3424 0.1032 -8.9813 -10.6751 -0.0293 -1.1042 3.0356 1.0670 -0.0811 36.5240 3.0977 0.6450 8.2853 2.4895 0.2400 -9.0000 -9.8228 -3.6390 -32.5974 6.0341 -1.9000 12.3797 3.3926 -0.6510 9.1919 0.0000 -0.0000 0.0000 46.5878 -46.8949 -24.9538 23.4736 -34.6027 7.4055 16.3393 19.9828 -14.5256 0.0 0.0 0.0 -7.1250 0.0 0.0 -10.3601 44.8355 -0.0425 0.0000 -0.0000 0.0000 -51.8519 -46.6786 14.7798 -26.8803 -38.0648 -9.4252 -25.7791 31.2578 -6.9291 0.0 0.0 0.0 7.1250 0.0 -0.0 0.7291 22.2937 0.3981
-1.4729 16.9520 -4.1913 -2.4567 1.9745 42.4518 0.0000 0.0000 0.0000 1.1087 -11.1087 -72.2693 4.0545 12.2325 36.5596 0.0156 2.6924 -4.6895 1.6554 -8.1082 -23.0431 0.0000 0.0000 0.0000 -1.0652 13.2570 -69.9520 -3.4539 -11.3959 33.6270 0.0914 -8.7158 -10.4972 -0.0271 -1.0633 2.9231 1.0799 -0.0135 34.7094 3.1516 0.6911 8.2910 2.5014 0.2657 -8.4633 -9.9915 -3.6934 -32.4428 6.1842 -1.9432 12.1825 3.4631 -0.6603 9.1060 -0.0000 -0.0000 0.0000 45.0497 -45.5781 -26.0286 24.0059 -35.1705 7.71 16.2536 20.0283 -14.6515 0.0 0.0 0.0 -7.1250 0.0 0.0 -10.4701 44.9533 -0.0122 -0.0000 -0.0000 0.0000 -50.6091 -45.4981 15.9205 -27.3575 -38.5179 -9.7209 -25.8564 31.3568 -6.882 0.0 0.0 0.0 7.1250 0.0 -0.0 0.6708 22.3409 0.3655
-1.4668 16.9558 -4.1751 -2.1514 1.8761 41.9447 0.0000 0.0000 0.0000 0.5067 -11.1999 -71.7380 4.0940 12.2844 36.7457 0.0229 2.5416 -4.8553 1.6674 -8.1358 -23.1274 0.0000 0.0000 0.0000 -1.1717 12.9943 -69.5128 -3.5061 -11.4724 33.8900 0.0827 -8.5578 -10.4374 -0.0204 -0.9225 2.5356 0.9228 -0.0895 33.2148 3.1535 0.5142 8.2437 2.6469 0.1912 -7.9510 -10.2695 -3.8075 -32.5290 6.4994 -2.0282 12.0321 3.6058 -0.6716 9.0800 -0.0000 -0.0000 0.0000 43.7597 -44.398 -26.9085 24.3274 -35.5085 7.8959 16.1469 20.1189 -14.6016 0.0 0.0 0.0 -7.1250 0.0 0.0 -10.5542 44.89 -0.029 -0.0000 -0.0000 0.0000 -49.4555 -44.3628 17.0673 -27.7130 -38.8507 -9.9431 -26.2872 31.5544 -6.8231 0.0 0.0 0.0 7.1250 0.0 -0.0 0.3532 22.3784 0.1921
-1.4629 16.9631 -4.1563 -1.8462 1.7210 41.2823 0.0000 0.0000 0.0000 -0.0312 -11.3418 -70.9647 4.1236 12.3230 36.8845 0.0276 2.5823 -5.1091 1.6393 -8.0704 -22.9282 0.0000 0.0000 0.0000 -1.3542 12.8571 -68.8328 -3.5476 -11.5328 34.0986 0.0737 -8.4500 -10.4712 -0.0137 -0.7555 2.0762 0.6362 -0.0682 31.7375 3.0513 0.4266 8.4774 2.9220 0.1785 -7.7621 -10.3329 -3.8543 -32.4848 6.6018 -2.0861 11.8992 3.6414 -0.6879 9.0335 -0.0000 0.0000 0.0000 42.4851 -43.2426 -28.0181 24.5234 -35.7129 8.0101 16.1638 20.1229 -14.3779 0.0 0.0 0.0 -7.1250 0.0 0.0 -10.4815 44.665 -0.0877 -0.0000 0.0000 0.0000 -48.6551 -43.2209 18.1263 -27.9437 -39.0644 -10.0882 -26.606 31.3373 -6.7466 0.0 0.0 0.0 7.1250 0.0 -0.0 0.1165 22.4429 0.0632
-1.4603 16.9942 -4.1313 -1.8198 1.6458 39.9138 0.0000 0.0000 0.0000 -0.4608 -11.2915 -69.3357 4.1396 12.3439 36.9597 0.0370 2.5351 -5.4415 1.5801 -7.9304 -22.5030 0.0000 0.0000 0.0000 -0.9891 12.8547 -67.2454 -3.5765 -11.5744 34.2425 0.0440 -8.1507 -10.6792 -0.0185 -0.8780 2.4133 0.6262 -0.0065 31.4204 3.0373 0.4944 8.3636 2.8838 0.2115 -7.7482 -10.1478 -3.8337 -32.1602 6.5293 -2.1512 11.5934 3.5691 -0.7183 8.8799 -0.0000 0.0000 0.0000 41.3409 -42.1034 -29.1616 24.8220 -36.0215 8.185 16.4798 19.9869 -13.9917 0.0 0.0 0.0 -7.1250 0.0 0.0 -10.0994 44.3088 -0.1741 -0.0000 0.0000 0.0000 -47.256 -41.585 19.0058 -28.5454 -39.6135 -10.4696 -27.1442 31.4462 -6.6588 0.0 0.0 0.0 7.1250 0.0 -0.0 -0.2818 22.5056 -0.1525
